<svg width="421" height="395" viewBox="0 0 421 395" fill="none" xmlns="http://www.w3.org/2000/svg">
<path d="M46.1448 350.281H4.19498L0 360.768H18.8774V394.328H29.3649V360.768H44.0473L46.1448 350.281Z" fill="#BF971B"/>
<path d="M98.5821 350.281H52.4373V360.768H98.5821V350.281Z" fill="#BF971B"/>
<path d="M52.4373 367.061H88.0946V377.548H62.9247V385.938H98.5821V394.328H52.4373V367.061Z" fill="#BF971B"/>
<path d="M134.239 350.281H104.875V360.768H111.167C120.256 360.069 138.015 359.929 136.337 364.963C134.659 369.997 131.443 371.256 130.044 371.256H115.362V360.768L104.875 369.158V394.328H115.362V381.743H125.849L134.239 394.328H148.922L136.337 379.646C139.833 379.646 146.824 376.709 146.824 364.963C146.824 353.217 138.434 350.281 134.239 350.281Z" fill="#BF971B"/>
<path d="M174.092 350.281L155.214 394.328H167.799L178.287 369.158L188.774 394.328H201.359L182.482 350.281H174.092Z" fill="#BF971B"/>
<path d="M253.796 350.281H209.749V360.768H245.406L253.796 350.281Z" fill="#BF971B"/>
<path d="M226.529 367.061H241.211L226.529 385.938H251.699V394.328H207.652L226.529 367.061Z" fill="#BF971B"/>
<path d="M293.649 350.281L274.771 394.328H285.259L297.844 369.158L308.331 394.328H318.819L299.941 350.281H293.649Z" fill="#BF971B"/>
<path d="M325 367.925V393.853L336.52 394V380.729H345.48L355.72 393.853H370.12L357.64 378.489C357.64 378.489 366.6 377.528 368.2 365.045C369.8 352.561 350.92 350 350.92 350H325V359.283H350.28C350.28 359.283 356.68 360.243 356.68 365.365C356.68 370.486 350.28 371.126 350.28 371.126H336.2V359.923L325 367.925Z" fill="#BF971B"/>
<path d="M399.88 359.283H421V350H399.88C399.88 350 375.88 350.96 375.88 371.927C375.88 392.893 399.88 393.853 399.88 393.853H421V384.571H399.88C399.88 384.571 386.44 383.93 386.44 371.927C386.44 359.923 399.88 359.283 399.88 359.283Z" fill="#BF971B"/>
<rect x="50.3398" width="130.044" height="50.3398" fill="#BF971B"/>
<rect x="50.3398" width="41.9498" height="88.0946" fill="#BF971B"/>
<rect x="239.114" width="130.044" height="50.3398" fill="#BF971B"/>
<rect x="327.209" width="41.9498" height="88.0946" fill="#BF971B"/>
<path d="M243.309 85.9971H180.384L52.4373 297.844H104.875L211.847 134.239L316.721 297.844H371.256L243.309 85.9971Z" fill="#515151"/>
<rect x="184.579" y="247.504" width="50.3398" height="50.3398" fill="#BF971B"/>
</svg>
