<svg width="107" height="100" viewBox="0 0 107 100" fill="none" xmlns="http://www.w3.org/2000/svg">
<path d="M11.6534 88.4601H1.0594L0 91.1086H4.76731V99.5838H7.41582V91.1086H11.1237L11.6534 88.4601Z" fill="#BF971B"/>
<path d="M24.896 88.4601H13.2425V91.1086H24.896V88.4601Z" fill="#BF971B"/>
<path d="M13.2425 92.6977H22.2475V95.3462H15.891V97.465H24.896V99.5838H13.2425V92.6977Z" fill="#BF971B"/>
<path d="M33.9009 88.4601H26.4851V91.1086H28.0742C30.3695 90.932 34.8543 90.8967 34.4306 92.168C34.0068 93.4393 33.1946 93.7571 32.8415 93.7571H29.1336V91.1086L26.4851 93.2274V99.5838H29.1336V96.4056H31.7821L33.9009 99.5838H37.6088L34.4306 95.8759C35.3134 95.8759 37.0791 95.1343 37.0791 92.168C37.0791 89.2017 34.9603 88.4601 33.9009 88.4601Z" fill="#BF971B"/>
<path d="M43.9652 88.4601L39.1979 99.5838H42.3761L45.0246 93.2274L47.6731 99.5838H50.8513L46.084 88.4601H43.9652Z" fill="#BF971B"/>
<path d="M64.0938 88.4601H52.9701V91.1086H61.975L64.0938 88.4601Z" fill="#BF971B"/>
<path d="M57.2077 92.6977H60.9156L57.2077 97.465H63.5642V99.5838H52.4404L57.2077 92.6977Z" fill="#BF971B"/>
<path d="M74.1582 88.4601L69.3909 99.5838H72.0394L75.2176 93.2274L77.8661 99.5838H80.5146L75.7473 88.4601H74.1582Z" fill="#BF971B"/>
<path d="M82.0756 92.9161V99.4639L84.9848 99.5009V96.1496H87.2476L89.8336 99.4639H93.4702L90.3185 95.5837C90.3185 95.5837 92.5812 95.3412 92.9853 92.1885C93.3894 89.0358 88.6214 88.3891 88.6214 88.3891H82.0756V90.7334H88.4598C88.4598 90.7334 90.076 90.976 90.076 92.2694C90.076 93.5628 88.4598 93.7244 88.4598 93.7244H84.904V90.8951L82.0756 92.9161Z" fill="#BF971B"/>
<path d="M100.986 90.7334H106.319V88.3891H100.986C100.986 88.3891 94.9248 88.6317 94.9248 93.9265C94.9248 99.2214 100.986 99.4639 100.986 99.4639H106.319V97.1196H100.986C100.986 97.1196 97.5916 96.9579 97.5916 93.9265C97.5916 90.8951 100.986 90.7334 100.986 90.7334Z" fill="#BF971B"/>
<rect x="12.7129" width="32.8415" height="12.7128" fill="#BF971B"/>
<rect x="12.7129" width="10.594" height="22.2475" fill="#BF971B"/>
<rect x="60.3859" width="32.8415" height="12.7128" fill="#BF971B"/>
<rect x="82.6334" width="10.594" height="22.2475" fill="#BF971B"/>
<path d="M61.4453 21.7177H45.5542L13.2424 75.2176H26.485L53.4997 33.9009L79.9848 75.2176H93.757L61.4453 21.7177Z" fill="#515151"/>
<rect x="46.6136" y="62.5047" width="12.7128" height="12.7128" fill="#BF971B"/>
</svg>
